<svg width="558" height="485" viewBox="0 0 558 558" fill="none" xmlns="http://www.w3.org/2000/svg">
<rect x="68" y="187" width="128" height="256" rx="15" fill="#A6C3E2"/>
<rect x="211" y="31" width="128" height="412" rx="15" fill="#7BB0E9"/>
<rect x="354" y="31" width="128" height="412" rx="15" fill="#3A86D7"/>
<path d="M68.0003 321.66C68.0003 317.131 70.0462 312.845 73.5671 309.997L414.374 34.3375C417.044 32.1781 420.374 31 423.807 31L467.075 31C475.363 31 482.08 37.7206 482.075 46.008L482.004 178.907C482.002 183.681 479.728 188.168 475.879 190.992L136.462 440.093C133.888 441.982 130.779 443 127.587 443L83.0001 443C74.7159 443 68.0001 436.284 68.0001 428L68.0003 321.66Z" fill="#30A9E2"/>
<rect x="173" y="135" width="200" height="200" rx="35" fill="#4183FA"/>
<path d="M273.688 283.432C269.848 283.432 266.349 282.963 263.192 282.024C260.12 281.085 257.389 279.891 255 278.44C252.696 276.989 250.733 275.496 249.112 273.96C247.491 272.424 246.296 271.016 245.528 269.736C244.419 268.2 243.693 266.835 243.352 265.64C243.011 264.445 243.096 263.293 243.608 262.184C244.205 260.989 245.272 259.752 246.808 258.472C248.344 257.107 249.752 256.424 251.032 256.424C252.397 256.339 253.677 256.723 254.872 257.576C256.152 258.429 257.389 259.624 258.584 261.16C260.632 263.891 262.936 265.853 265.496 267.048C268.056 268.157 270.616 268.712 273.176 268.712C276.504 268.712 279.405 268.285 281.88 267.432C284.355 266.493 286.275 265.128 287.64 263.336C289.091 261.544 289.816 259.24 289.816 256.424C289.816 254.12 289.091 252.243 287.64 250.792C286.275 249.256 284.44 247.976 282.136 246.952C279.832 245.843 277.229 244.861 274.328 244.008C271.512 243.069 268.653 242.045 265.752 240.936C263.704 240.253 261.656 239.443 259.608 238.504C257.56 237.48 255.64 236.328 253.848 235.048C252.141 233.768 250.605 232.275 249.24 230.568C247.96 228.776 246.936 226.728 246.168 224.424C245.4 222.12 245.016 219.432 245.016 216.36C245.016 211.496 246.211 207.229 248.6 203.56C250.989 199.805 254.317 196.861 258.584 194.728C262.851 192.509 267.715 191.4 273.176 191.4C276.675 191.4 279.789 191.741 282.52 192.424C285.336 193.021 287.725 193.832 289.688 194.856C291.736 195.795 293.4 196.776 294.68 197.8C296.045 198.739 297.027 199.549 297.624 200.232C299.587 202.195 300.653 203.859 300.824 205.224C301.08 206.504 300.312 208.253 298.52 210.472C296.728 212.776 294.979 214.056 293.272 214.312C291.651 214.483 289.816 213.8 287.768 212.264C286.403 210.813 285.037 209.661 283.672 208.808C282.307 207.869 280.771 207.187 279.064 206.76C277.443 206.333 275.437 206.12 273.048 206.12C271.341 206.12 269.677 206.376 268.056 206.888C266.52 207.315 265.197 207.997 264.088 208.936C262.979 209.789 262.083 210.856 261.4 212.136C260.803 213.416 260.504 214.867 260.504 216.488C260.504 218.707 261.101 220.541 262.296 221.992C263.576 223.357 265.283 224.509 267.416 225.448C269.549 226.301 271.939 227.112 274.584 227.88C277.229 228.648 279.917 229.459 282.648 230.312C285.464 231.251 288.237 232.36 290.968 233.64C293.699 234.92 296.131 236.541 298.264 238.504C300.397 240.381 302.104 242.771 303.384 245.672C304.664 248.488 305.304 251.944 305.304 256.04C305.304 260.733 304.408 264.829 302.616 268.328C300.824 271.827 298.392 274.685 295.32 276.904C292.248 279.123 288.835 280.744 285.08 281.768C281.325 282.877 277.528 283.432 273.688 283.432Z" fill="#F0EADA"/>
</svg>
